<svg xmlns="http://www.w3.org/2000/svg" id="Ebene_1" viewBox="0 0 63.205509 63.205509" width="63.206" height="63.206">
  <style id="style3">
    .st0{fill:#76B82A;} .st1{fill:#FFFFFF;}
  </style>
  <g id="g5" transform="scale(.16417)">
    <circle class="st0" cx="192.5" cy="192.5" r="192.5" id="circle7" fill="#76b82a"/>
    <path class="st1" d="M334.4 152.5v-41.6c0-19.1-6.3-33.9-18.8-44.4s-30.1-15.7-52.7-15.7c-22.4 0-39.8 5-52.3 15-10.9 8.8-17.1 20.6-18.4 35.5-1.7-14.5-7.8-26.2-18.5-35-12.6-10.4-30.2-15.6-52.5-15.6-25.4 0-43.6 5.8-54.4 17.4C56 79.6 50.6 99.7 50.6 128.4v130.7c0 28.3 5.5 48.3 16.4 60 10.9 11.7 29.2 17.6 54.6 17.6 22.5 0 40-5.4 52.4-16.3 10.7-9.3 16.7-22 18.2-37.8 1.5 15.7 7.6 28.3 18.4 37.7 12.6 10.9 30.1 16.4 52.6 16.4 23 0 40.6-5.4 52.8-16.3 12.2-10.8 18.3-26.4 18.3-46.7v-31.2c0-13.7-2.4-24.9-7.1-33.4-4.7-8.6-16.5-20.5-35.5-35.7-2.5-2-5.9-4.7-10.4-8.1-19.3-14.8-28.9-28.4-28.9-40.7V110c0-6 .8-10.3 2.5-12.8s4.5-3.8 8.3-3.8c3.9 0 6.6 1.3 8.3 3.8 1.7 2.6 2.5 6.8 2.5 12.8v42.5h60.4zm-60.2 98V275c0 6-.8 10.3-2.5 12.8-1.7 2.6-4.5 3.8-8.3 3.8-3.9 0-6.6-1.3-8.3-3.8-1.7-2.5-2.5-6.8-2.5-12.8v-51H132.7v51c0 6-.9 10.3-2.5 12.8-1.7 2.6-4.5 3.8-8.3 3.8-3.9 0-6.7-1.3-8.3-3.8-1.7-2.5-2.5-6.8-2.5-12.8V109.9c0-6 .8-10.3 2.5-12.8s4.5-3.8 8.3-3.8c3.9 0 6.6 1.3 8.3 3.8 1.7 2.6 2.5 6.8 2.5 12.8v42.5h60.1v-10.9c3.3 20 16.9 39.8 40.8 59.7l.5.5c2.5 2 5.9 4.7 10.2 8.1 19.9 16.1 29.9 29.6 29.9 40.7z" id="path9" fill="#fff"/>
  </g>
</svg>
