<svg xmlns="http://www.w3.org/2000/svg" viewBox="0 0 64 64"><path fill="#8ac249" d="M0 0h64v64H0z"/><path d="M14.979 52.126a3.09 3.09 0 002.185-.92l8.31-8.28c2.817 1.955 6.21 2.99 9.66 2.99 9.373.029 16.992-7.59 16.992-17.021 0-9.402-7.619-17.021-17.02-17.021-9.403 0-17.022 7.619-17.022 17.02 0 3.422 1.035 6.815 2.99 9.661l-8.309 8.31a3.136 3.136 0 00-.891 2.185c0 1.667 1.409 3.076 3.105 3.076zm20.126-36.17c7.13 0 12.938 5.808 12.938 12.939 0 7.13-5.807 12.938-12.938 12.938-7.13 0-12.938-5.808-12.938-12.938 0-7.13 5.808-12.938 12.938-12.938z" stroke="none" fill="#fff" stroke-width="0" paint-order="stroke fill markers"/></svg>