<svg xmlns="http://www.w3.org/2000/svg" viewBox="0 0 64 64"><path fill="#8ac249" d="M0 0h64v64H0z"/><g transform="translate(3.741 3.313) scale(1.12054)" fill="#fff"><path d="M44 22v20H20V22zm-25-2a1 1 0 00-1 1v22a1 1 0 001 1h26a1 1 0 001-1V21a1 1 0 00-1-1z"/><path d="M36 40H22l7-12z"/><path d="M42 40H30l6-8z"/><circle cx="40" cy="26" r="2"/></g><path d="M12.783 38.701c.522 0 1.007-.216 1.367-.575l5.2-5.183a10.625 10.625 0 006.047 1.871c5.866.018 10.635-4.75 10.635-10.652 0-5.885-4.769-10.653-10.653-10.653s-10.653 4.768-10.653 10.653c0 2.14.648 4.264 1.872 6.046l-5.2 5.2a1.962 1.962 0 00-.559 1.368c0 1.044.882 1.925 1.944 1.925zm12.596-22.637c4.463 0 8.098 3.635 8.098 8.098 0 4.462-3.635 8.097-8.098 8.097-4.463 0-8.098-3.635-8.098-8.097 0-4.463 3.635-8.098 8.098-8.098z" stroke-width="4.2503953800000005" fill="#fff" stroke="#8ac249" paint-order="stroke fill markers"/></svg>