<?xml version="1.0" encoding="utf-8"?><svg width='16px' height='16px' xmlns="http://www.w3.org/2000/svg" viewBox="0 0 100 100" preserveAspectRatio="xMidYMid" class="uil-magnify"><rect x="0" y="0" width="100" height="100" fill="none" class="bk"></rect><g><circle fill="#679f37" cx="47" cy="47" r="20" opacity="0.5"></circle><path d="M77.5,69.3l-6.2-6.2c-0.7-0.7-1.3-1.2-1.9-1.6c2.6-4,4.1-8.8,4.1-14c0-14.4-11.7-26.1-26.1-26.1S21.3,33.2,21.3,47.5 S33,73.6,47.4,73.6c5.4,0,10.4-1.6,14.5-4.4c0.5,0.7,1.1,1.4,1.9,2.2l5.8,5.8c2.9,2.9,7.1,3.5,9.2,1.3C81,76.4,80.4,72.2,77.5,69.3z M47.4,66.2c-10.3,0-18.7-8.4-18.7-18.6s8.4-18.6,18.7-18.6s18.7,8.4,18.7,18.6S57.7,66.2,47.4,66.2z" fill="#000000"></path><animateTransform attributeName="transform" type="translate" from="15 15" to="15 15" dur="1s" repeatCount="indefinite" values="15 15;-15 15;0 -10.98;15 15" keyTimes="0;0.33;0.66;1"></animateTransform></g></svg>